<svg viewBox="0 0 110.19273 127.61698"
     width="110.19271"
     height="127.61699"
     stroke="currentColor"
     stroke-width="6px"
     stroke-linecap="round"
     stroke-linejoin="round"
     style="fill:none"
     xmlns="http://www.w3.org/2000/svg">
      <path d="m 29.975876,56.188673 -24.3099995,7.02 z m -2.76,-22.48 -24.2099995,-0.33 z m 4.48,-18.24 -21.03,-12.4599998 z m 75.060004,96.419997 c 0,-23.969997 0.98,-49.919997 0,-73.639997 0.05,-7.59 0.04,-8.67 -6.09,-15.9 -0.76,-0.9 -1.55,-1.76 -2.36,-2.59 -0.8,-0.82 -1.630004,-1.6 -2.470004,-2.33 -0.85,-0.74 -1.71,-1.43 -2.59,-2.09 -0.88,-0.65 -1.77,-1.27 -2.68,-1.84 -3.63,-2.29 -7.49,-4.1899998 -11.42,-5.4499998 -3.61,-1.16 -7.28,-1.8 -10.9,-1.73 -3.4,0.07 -6.74,0.75 -9.92,2.18 -2.96,1.34 -5.79,3.3199998 -8.4,6.0799998 -0.52,0.55 -1.02,1.13 -1.5,1.73 -0.48,0.6 -0.93,1.22 -1.36,1.88 -0.43,0.65 -0.84,1.33 -1.23,2.03 -0.38,0.7 -0.75,1.42 -1.09,2.17 -1.42,3.12 -2.33,6.62 -2.85,10.34 -0.57,4.09 -0.65,8.44 -0.38,12.83 0.3,4.97 1.06,10 2.07,14.78 1.17,5.49 2.68,10.65 4.24,14.98 1.52,4.21 3.68,8.64 6.29,13.04 2.68,4.51 5.84,9 9.29,13.229997 3.4,4.16 7.12,8.08 10.96,11.54 3.68,3.3 7.49,6.17 11.25,8.38 2.44,1.44 4.75,2.4 6.9,2.84 2.2,0.45 4.25,0.35 6.110004,-0.36 1.87,-0.71 3.5,-2.02 4.86,-3.96 1.33,-1.9 2.4,-4.42 3.19,-7.62 l 0.01,-0.03 c 0.02,-0.08 0.03,-0.15 0.04,-0.22 0.01,-0.1 0.02,-0.18 0.03,-0.27 z" />
      <path d="M 82.039458,100.25274 C 81.223522,96.091462 82.717167,97.690702 68.362328,81.863574 58.815873,71.337997 58.289065,68.222657 55.351695,60.308076 52.544385,52.743934 52.041042,43.774135 53.591321,38.796924 55.1416,33.819713 59.115797,27.200452 63.793085,25.074412 c 6.282708,-2.855776 13.264963,-1.390098 17.542629,2.447809 4.365259,3.916494 6.037928,7.343426 7.017051,10.280797 1.176759,3.53028 2.366215,8.077768 0.244781,12.973386 -2.121434,4.895617 -2.855777,6.037928 -2.855777,6.037928 m 4.079682,-12.075856 c -3.671713,0.815936 -13.707729,3.263745 -17.542629,6.52749 -3.834901,3.263745 -6.52749,5.303585 -5.548367,11.015139 0.979124,5.711553 2.610996,8.322549 6.52749,12.810198 3.916494,4.48765 16.318725,15.74757 18.68494,17.869004 2.583216,2.315987 3.182151,3.998088 4.73243,3.916494 1.550275,-0.08159 1.876655,-0.89753 2.039845,-2.03984 0.16318,-1.142311 0.81593,-4.650837 -0.48957,-7.42502 -1.305494,-2.774183 -1.631869,-3.263745 -3.508522,-4.324462" />
      <path d="m 94.717068,83.087479 c -0.317324,-2.567446 -0.618999,-2.811749 -0.292864,-4.354325 0.345733,-1.635277 1.355842,-2.192426 1.846253,-3.952135 0.490411,-1.75971 0.03954,-3.714733 -0.605802,-4.067527 -1.065977,-0.582748 -2.336664,-0.346172 -3.634811,1.875101 -1.298147,2.221273 -1.269299,4.125221 -1.12506,5.65415 0.144238,1.528928 1.00967,3.346333 1.615471,3.836744 0.605802,0.490411 2.196813,1.007992 2.196813,1.007992 z"
            style="fill:currentColor" />
</svg>