<svg xmlns="http://www.w3.org/2000/svg"
     fill="currentColor"
     stroke="currentColor"
     viewBox="0 0 46.972002 46.971999">
  <path d="m 43.954,18.943 h -2.437 c -0.453,-1.766 -1.16,-3.42 -2.082,-4.933 l 1.752,-1.756 C 41.66,11.781 41.92,11.15 41.92,10.48 41.92,9.811 41.658,9.179 41.187,8.707 L 38.267,5.79 C 37.32,4.842 35.665,4.843 34.722,5.789 L 32.896,7.604 C 31.4,6.732 29.796,6.06 28.029,5.628 V 3.02 c 0,-1.383 -1.105,-2.52 -2.488,-2.52 h -4.128 c -1.383,0 -2.471,1.137 -2.471,2.52 v 2.607 c -1.766,0.431 -3.38,1.104 -4.878,1.977 L 12.239,5.789 C 11.293,4.841 9.637,4.842 8.688,5.788 L 5.77,8.705 c -0.468,0.467 -0.735,1.113 -0.735,1.773 0,0.669 0.259,1.299 0.733,1.772 L 7.52,14.01 C 6.599,15.523 5.891,17.177 5.439,18.943 H 3.001 c -1.384,0 -2.501,1.112 -2.501,2.492 v 4.125 c 0,1.384 1.117,2.471 2.501,2.471 h 2.438 c 0.452,1.766 1.159,3.43 2.079,4.943 l -1.752,1.763 c -0.474,0.473 -0.734,1.106 -0.734,1.776 0,0.67 0.261,1.303 0.734,1.776 l 2.92,2.919 c 0.474,0.473 1.103,0.733 1.772,0.733 0.669,0 1.299,-0.261 1.773,-0.733 l 1.833,-1.816 c 1.498,0.873 3.112,1.545 4.878,1.978 v 2.604 c 0,1.383 1.088,2.498 2.471,2.498 h 4.128 c 1.383,0 2.488,-1.115 2.488,-2.498 v -2.605 c 1.767,-0.432 3.371,-1.104 4.869,-1.977 l 1.817,1.812 c 0.474,0.475 1.104,0.735 1.775,0.735 0.67,0 1.301,-0.261 1.774,-0.733 l 2.92,-2.917 c 0.473,-0.472 0.732,-1.103 0.734,-1.772 0,-0.67 -0.262,-1.299 -0.734,-1.773 l -1.75,-1.77 c 0.92,-1.514 1.627,-3.179 2.08,-4.943 h 2.438 c 1.383,0 2.52,-1.087 2.52,-2.471 v -4.125 c 10e-4,-1.38 -1.135,-2.492 -2.518,-2.492 z M 23.476,31.35 c -4.378,0 -7.928,-3.517 -7.928,-7.852 0,-4.338 3.55,-7.85 7.928,-7.85 4.379,0 7.931,3.512 7.931,7.85 -0.001,4.336 -3.552,7.852 -7.931,7.852 z" />
</svg>